<mxfile host="app.diagrams.net" modified="2021-02-15T03:02:34.646Z" agent="5.0 (Macintosh; Intel Mac OS X 10_14_1) AppleWebKit/537.36 (KHTML, like Gecko) Chrome/88.0.4324.150 Safari/537.36" etag="RwlxR8fXlvZfvl8ebMv0" version="14.3.1" type="github">
  <diagram id="C5RBs43oDa-KdzZeNtuy" name="Page-1">
    <mxGraphModel dx="946" dy="566" grid="1" gridSize="10" guides="1" tooltips="1" connect="1" arrows="1" fold="1" page="1" pageScale="1" pageWidth="827" pageHeight="1169" math="0" shadow="0">
      <root>
        <mxCell id="WIyWlLk6GJQsqaUBKTNV-0" />
        <mxCell id="WIyWlLk6GJQsqaUBKTNV-1" parent="WIyWlLk6GJQsqaUBKTNV-0" />
        <mxCell id="jEGufmTth_3qsC6mwu-q-0" value="" style="rounded=0;whiteSpace=wrap;html=1;" parent="WIyWlLk6GJQsqaUBKTNV-1" vertex="1">
          <mxGeometry x="520" y="80" width="10" height="660" as="geometry" />
        </mxCell>
        <mxCell id="jEGufmTth_3qsC6mwu-q-1" value="" style="rounded=0;whiteSpace=wrap;html=1;" parent="WIyWlLk6GJQsqaUBKTNV-1" vertex="1">
          <mxGeometry x="270" y="80" width="10" height="660" as="geometry" />
        </mxCell>
        <mxCell id="jEGufmTth_3qsC6mwu-q-2" value="User" style="text;html=1;resizable=0;autosize=1;align=center;verticalAlign=middle;points=[];fillColor=none;strokeColor=none;rounded=0;fontSize=15;" parent="WIyWlLk6GJQsqaUBKTNV-1" vertex="1">
          <mxGeometry x="250" y="50" width="50" height="20" as="geometry" />
        </mxCell>
        <mxCell id="jEGufmTth_3qsC6mwu-q-3" value="Server" style="text;html=1;resizable=0;autosize=1;align=center;verticalAlign=middle;points=[];fillColor=none;strokeColor=none;rounded=0;fontSize=15;" parent="WIyWlLk6GJQsqaUBKTNV-1" vertex="1">
          <mxGeometry x="495" y="50" width="60" height="20" as="geometry" />
        </mxCell>
        <mxCell id="jEGufmTth_3qsC6mwu-q-4" value="" style="endArrow=classic;html=1;fontSize=15;" parent="WIyWlLk6GJQsqaUBKTNV-1" edge="1">
          <mxGeometry width="50" height="50" relative="1" as="geometry">
            <mxPoint x="300" y="180" as="sourcePoint" />
            <mxPoint x="510" y="180" as="targetPoint" />
            <Array as="points">
              <mxPoint x="390" y="180" />
            </Array>
          </mxGeometry>
        </mxCell>
        <mxCell id="jEGufmTth_3qsC6mwu-q-5" value="User sign in/register" style="text;html=1;resizable=0;autosize=1;align=center;verticalAlign=middle;points=[];fillColor=none;strokeColor=none;rounded=0;fontSize=12;" parent="WIyWlLk6GJQsqaUBKTNV-1" vertex="1">
          <mxGeometry x="340" y="160" width="120" height="20" as="geometry" />
        </mxCell>
        <mxCell id="jEGufmTth_3qsC6mwu-q-6" value="" style="endArrow=none;dashed=1;html=1;fontSize=12;" parent="WIyWlLk6GJQsqaUBKTNV-1" edge="1">
          <mxGeometry width="50" height="50" relative="1" as="geometry">
            <mxPoint x="314" y="279.5" as="sourcePoint" />
            <mxPoint x="510" y="280" as="targetPoint" />
          </mxGeometry>
        </mxCell>
        <mxCell id="jEGufmTth_3qsC6mwu-q-7" value="" style="endArrow=classic;html=1;fontSize=12;" parent="WIyWlLk6GJQsqaUBKTNV-1" edge="1">
          <mxGeometry width="50" height="50" relative="1" as="geometry">
            <mxPoint x="310" y="279.5" as="sourcePoint" />
            <mxPoint x="300" y="279.5" as="targetPoint" />
          </mxGeometry>
        </mxCell>
        <mxCell id="jEGufmTth_3qsC6mwu-q-8" value="parent is signed in" style="text;html=1;resizable=0;autosize=1;align=center;verticalAlign=middle;points=[];fillColor=none;strokeColor=none;rounded=0;fontSize=12;" parent="WIyWlLk6GJQsqaUBKTNV-1" vertex="1">
          <mxGeometry x="345" y="260" width="110" height="20" as="geometry" />
        </mxCell>
        <mxCell id="jEGufmTth_3qsC6mwu-q-9" value="" style="endArrow=classic;html=1;fontSize=12;" parent="WIyWlLk6GJQsqaUBKTNV-1" edge="1">
          <mxGeometry width="50" height="50" relative="1" as="geometry">
            <mxPoint x="300" y="110" as="sourcePoint" />
            <mxPoint x="510" y="110" as="targetPoint" />
          </mxGeometry>
        </mxCell>
        <mxCell id="jEGufmTth_3qsC6mwu-q-10" value="(optional) Register name, child name,&amp;nbsp;&amp;nbsp;&lt;br&gt;&amp;nbsp;school, parent and child DOB" style="text;html=1;resizable=0;autosize=1;align=center;verticalAlign=middle;points=[];fillColor=none;strokeColor=none;rounded=0;fontSize=10;" parent="WIyWlLk6GJQsqaUBKTNV-1" vertex="1">
          <mxGeometry x="300" y="80" width="190" height="30" as="geometry" />
        </mxCell>
        <mxCell id="jEGufmTth_3qsC6mwu-q-12" value="" style="endArrow=classic;html=1;fontSize=10;" parent="WIyWlLk6GJQsqaUBKTNV-1" edge="1">
          <mxGeometry width="50" height="50" relative="1" as="geometry">
            <mxPoint x="310" y="140" as="sourcePoint" />
            <mxPoint x="300" y="140" as="targetPoint" />
          </mxGeometry>
        </mxCell>
        <mxCell id="jEGufmTth_3qsC6mwu-q-13" value="Account created, confirmation email" style="text;html=1;resizable=0;autosize=1;align=center;verticalAlign=middle;points=[];fillColor=none;strokeColor=none;rounded=0;fontSize=10;" parent="WIyWlLk6GJQsqaUBKTNV-1" vertex="1">
          <mxGeometry x="315" y="120" width="170" height="20" as="geometry" />
        </mxCell>
        <mxCell id="jEGufmTth_3qsC6mwu-q-14" value="" style="endArrow=none;dashed=1;html=1;fontSize=10;" parent="WIyWlLk6GJQsqaUBKTNV-1" target="jEGufmTth_3qsC6mwu-q-13" edge="1">
          <mxGeometry width="50" height="50" relative="1" as="geometry">
            <mxPoint x="320" y="140" as="sourcePoint" />
            <mxPoint x="510" y="130" as="targetPoint" />
            <Array as="points" />
          </mxGeometry>
        </mxCell>
        <mxCell id="jEGufmTth_3qsC6mwu-q-15" value="" style="endArrow=none;dashed=1;html=1;fontSize=10;" parent="WIyWlLk6GJQsqaUBKTNV-1" edge="1">
          <mxGeometry width="50" height="50" relative="1" as="geometry">
            <mxPoint x="310" y="140" as="sourcePoint" />
            <mxPoint x="510" y="140" as="targetPoint" />
          </mxGeometry>
        </mxCell>
        <mxCell id="jEGufmTth_3qsC6mwu-q-17" value="" style="rounded=0;whiteSpace=wrap;html=1;fontSize=10;" parent="WIyWlLk6GJQsqaUBKTNV-1" vertex="1">
          <mxGeometry x="630" y="200" width="10" height="400" as="geometry" />
        </mxCell>
        <mxCell id="jEGufmTth_3qsC6mwu-q-18" value="Payment&lt;br style=&quot;font-size: 13px;&quot;&gt;&amp;nbsp;Services" style="text;html=1;resizable=0;autosize=1;align=center;verticalAlign=middle;points=[];fillColor=none;strokeColor=none;rounded=0;fontSize=13;" parent="WIyWlLk6GJQsqaUBKTNV-1" vertex="1">
          <mxGeometry x="600" y="160" width="70" height="40" as="geometry" />
        </mxCell>
        <mxCell id="jEGufmTth_3qsC6mwu-q-19" value="" style="endArrow=classic;html=1;fontSize=13;" parent="WIyWlLk6GJQsqaUBKTNV-1" edge="1">
          <mxGeometry width="50" height="50" relative="1" as="geometry">
            <mxPoint x="300" y="250" as="sourcePoint" />
            <mxPoint x="510" y="250" as="targetPoint" />
          </mxGeometry>
        </mxCell>
        <mxCell id="jEGufmTth_3qsC6mwu-q-21" value="" style="endArrow=classic;html=1;fontSize=13;" parent="WIyWlLk6GJQsqaUBKTNV-1" edge="1">
          <mxGeometry width="50" height="50" relative="1" as="geometry">
            <mxPoint x="310" y="220" as="sourcePoint" />
            <mxPoint x="300" y="220" as="targetPoint" />
          </mxGeometry>
        </mxCell>
        <mxCell id="jEGufmTth_3qsC6mwu-q-22" value="(if no subscription) ask user for subscription &lt;br&gt;type and payment info" style="text;html=1;resizable=0;autosize=1;align=center;verticalAlign=middle;points=[];fillColor=none;strokeColor=none;rounded=0;fontSize=10;" parent="WIyWlLk6GJQsqaUBKTNV-1" vertex="1">
          <mxGeometry x="295" y="190" width="210" height="30" as="geometry" />
        </mxCell>
        <mxCell id="jEGufmTth_3qsC6mwu-q-24" value="" style="endArrow=none;dashed=1;html=1;fontSize=10;" parent="WIyWlLk6GJQsqaUBKTNV-1" edge="1">
          <mxGeometry width="50" height="50" relative="1" as="geometry">
            <mxPoint x="310" y="220" as="sourcePoint" />
            <mxPoint x="510" y="220" as="targetPoint" />
          </mxGeometry>
        </mxCell>
        <mxCell id="jEGufmTth_3qsC6mwu-q-25" value="input payment info" style="text;html=1;resizable=0;autosize=1;align=center;verticalAlign=middle;points=[];fillColor=none;strokeColor=none;rounded=0;fontSize=10;" parent="WIyWlLk6GJQsqaUBKTNV-1" vertex="1">
          <mxGeometry x="350" y="230" width="100" height="20" as="geometry" />
        </mxCell>
        <mxCell id="jEGufmTth_3qsC6mwu-q-26" value="" style="endArrow=classic;html=1;fontSize=10;" parent="WIyWlLk6GJQsqaUBKTNV-1" edge="1">
          <mxGeometry width="50" height="50" relative="1" as="geometry">
            <mxPoint x="540" y="250" as="sourcePoint" />
            <mxPoint x="620" y="250" as="targetPoint" />
          </mxGeometry>
        </mxCell>
        <mxCell id="jEGufmTth_3qsC6mwu-q-27" value="payment info&lt;br&gt;&amp;nbsp;is sent" style="text;html=1;resizable=0;autosize=1;align=center;verticalAlign=middle;points=[];fillColor=none;strokeColor=none;rounded=0;fontSize=10;" parent="WIyWlLk6GJQsqaUBKTNV-1" vertex="1">
          <mxGeometry x="540" y="215" width="70" height="30" as="geometry" />
        </mxCell>
        <mxCell id="jEGufmTth_3qsC6mwu-q-28" value="" style="endArrow=none;dashed=1;html=1;fontSize=10;" parent="WIyWlLk6GJQsqaUBKTNV-1" edge="1">
          <mxGeometry width="50" height="50" relative="1" as="geometry">
            <mxPoint x="550" y="280" as="sourcePoint" />
            <mxPoint x="620" y="280" as="targetPoint" />
            <Array as="points">
              <mxPoint x="570" y="280" />
            </Array>
          </mxGeometry>
        </mxCell>
        <mxCell id="jEGufmTth_3qsC6mwu-q-29" value="" style="endArrow=classic;html=1;fontSize=10;" parent="WIyWlLk6GJQsqaUBKTNV-1" edge="1">
          <mxGeometry width="50" height="50" relative="1" as="geometry">
            <mxPoint x="550" y="280" as="sourcePoint" />
            <mxPoint x="540" y="280" as="targetPoint" />
          </mxGeometry>
        </mxCell>
        <mxCell id="jEGufmTth_3qsC6mwu-q-30" value="payment confirmed" style="text;html=1;resizable=0;autosize=1;align=center;verticalAlign=middle;points=[];fillColor=none;strokeColor=none;rounded=0;fontSize=10;" parent="WIyWlLk6GJQsqaUBKTNV-1" vertex="1">
          <mxGeometry x="530" y="260" width="100" height="20" as="geometry" />
        </mxCell>
        <mxCell id="oCqJVqsjdXsVLJCah1_B-0" value="" style="endArrow=classic;html=1;fontSize=10;" parent="WIyWlLk6GJQsqaUBKTNV-1" edge="1">
          <mxGeometry width="50" height="50" relative="1" as="geometry">
            <mxPoint x="275" y="740" as="sourcePoint" />
            <mxPoint x="260" y="280" as="targetPoint" />
            <Array as="points">
              <mxPoint x="275" y="750" />
              <mxPoint x="255" y="750" />
              <mxPoint x="235" y="750" />
              <mxPoint x="240" y="280" />
            </Array>
          </mxGeometry>
        </mxCell>
        <mxCell id="oCqJVqsjdXsVLJCah1_B-1" value="" style="endArrow=classic;html=1;fontSize=10;" parent="WIyWlLk6GJQsqaUBKTNV-1" edge="1">
          <mxGeometry width="50" height="50" relative="1" as="geometry">
            <mxPoint x="300" y="330" as="sourcePoint" />
            <mxPoint x="510" y="330" as="targetPoint" />
          </mxGeometry>
        </mxCell>
        <mxCell id="oCqJVqsjdXsVLJCah1_B-4" value="view child info" style="text;html=1;resizable=0;autosize=1;align=center;verticalAlign=middle;points=[];fillColor=none;strokeColor=none;rounded=0;fontSize=10;" parent="WIyWlLk6GJQsqaUBKTNV-1" vertex="1">
          <mxGeometry x="360" y="310" width="80" height="20" as="geometry" />
        </mxCell>
        <mxCell id="oCqJVqsjdXsVLJCah1_B-6" value="" style="endArrow=classic;html=1;fontSize=10;" parent="WIyWlLk6GJQsqaUBKTNV-1" edge="1">
          <mxGeometry width="50" height="50" relative="1" as="geometry">
            <mxPoint x="300" y="400" as="sourcePoint" />
            <mxPoint x="510" y="400" as="targetPoint" />
          </mxGeometry>
        </mxCell>
        <mxCell id="oCqJVqsjdXsVLJCah1_B-7" value="view nutritional information and games" style="text;html=1;resizable=0;autosize=1;align=center;verticalAlign=middle;points=[];fillColor=none;strokeColor=none;rounded=0;fontSize=10;" parent="WIyWlLk6GJQsqaUBKTNV-1" vertex="1">
          <mxGeometry x="305" y="380" width="190" height="20" as="geometry" />
        </mxCell>
        <mxCell id="oCqJVqsjdXsVLJCah1_B-8" value="" style="endArrow=classic;html=1;fontSize=10;" parent="WIyWlLk6GJQsqaUBKTNV-1" edge="1">
          <mxGeometry width="50" height="50" relative="1" as="geometry">
            <mxPoint x="300" y="480" as="sourcePoint" />
            <mxPoint x="510" y="480" as="targetPoint" />
          </mxGeometry>
        </mxCell>
        <mxCell id="oCqJVqsjdXsVLJCah1_B-9" value="search for fitness facilities,&lt;br&gt;input parameters (location, price range)&lt;br&gt;" style="text;html=1;resizable=0;autosize=1;align=center;verticalAlign=middle;points=[];fillColor=none;strokeColor=none;rounded=0;fontSize=10;" parent="WIyWlLk6GJQsqaUBKTNV-1" vertex="1">
          <mxGeometry x="300" y="445" width="190" height="30" as="geometry" />
        </mxCell>
        <mxCell id="oCqJVqsjdXsVLJCah1_B-10" value="" style="endArrow=classic;html=1;fontSize=10;" parent="WIyWlLk6GJQsqaUBKTNV-1" edge="1">
          <mxGeometry width="50" height="50" relative="1" as="geometry">
            <mxPoint x="295" y="630" as="sourcePoint" />
            <mxPoint x="505" y="630" as="targetPoint" />
          </mxGeometry>
        </mxCell>
        <mxCell id="oCqJVqsjdXsVLJCah1_B-11" value="share to social media, choose platform" style="text;html=1;resizable=0;autosize=1;align=center;verticalAlign=middle;points=[];fillColor=none;strokeColor=none;rounded=0;fontSize=10;" parent="WIyWlLk6GJQsqaUBKTNV-1" vertex="1">
          <mxGeometry x="300" y="610" width="190" height="20" as="geometry" />
        </mxCell>
        <mxCell id="oCqJVqsjdXsVLJCah1_B-12" value="" style="endArrow=classic;html=1;fontSize=10;" parent="WIyWlLk6GJQsqaUBKTNV-1" edge="1">
          <mxGeometry width="50" height="50" relative="1" as="geometry">
            <mxPoint x="295" y="550" as="sourcePoint" />
            <mxPoint x="505" y="550" as="targetPoint" />
          </mxGeometry>
        </mxCell>
        <mxCell id="oCqJVqsjdXsVLJCah1_B-13" value="edit profile/payment information" style="text;html=1;resizable=0;autosize=1;align=center;verticalAlign=middle;points=[];fillColor=none;strokeColor=none;rounded=0;fontSize=10;" parent="WIyWlLk6GJQsqaUBKTNV-1" vertex="1">
          <mxGeometry x="325" y="530" width="150" height="20" as="geometry" />
        </mxCell>
        <mxCell id="oCqJVqsjdXsVLJCah1_B-14" value="" style="endArrow=none;dashed=1;html=1;fontSize=10;" parent="WIyWlLk6GJQsqaUBKTNV-1" edge="1">
          <mxGeometry width="50" height="50" relative="1" as="geometry">
            <mxPoint x="310" y="360" as="sourcePoint" />
            <mxPoint x="500" y="360" as="targetPoint" />
          </mxGeometry>
        </mxCell>
        <mxCell id="oCqJVqsjdXsVLJCah1_B-15" value="" style="endArrow=classic;html=1;fontSize=10;" parent="WIyWlLk6GJQsqaUBKTNV-1" edge="1">
          <mxGeometry width="50" height="50" relative="1" as="geometry">
            <mxPoint x="310" y="360" as="sourcePoint" />
            <mxPoint x="300" y="360" as="targetPoint" />
          </mxGeometry>
        </mxCell>
        <mxCell id="oCqJVqsjdXsVLJCah1_B-16" value="return child info" style="text;html=1;resizable=0;autosize=1;align=center;verticalAlign=middle;points=[];fillColor=none;strokeColor=none;rounded=0;fontSize=10;" parent="WIyWlLk6GJQsqaUBKTNV-1" vertex="1">
          <mxGeometry x="360" y="340" width="80" height="20" as="geometry" />
        </mxCell>
        <mxCell id="oCqJVqsjdXsVLJCah1_B-18" value="" style="endArrow=none;dashed=1;html=1;fontSize=10;" parent="WIyWlLk6GJQsqaUBKTNV-1" edge="1">
          <mxGeometry width="50" height="50" relative="1" as="geometry">
            <mxPoint x="310" y="430" as="sourcePoint" />
            <mxPoint x="510" y="430" as="targetPoint" />
          </mxGeometry>
        </mxCell>
        <mxCell id="oCqJVqsjdXsVLJCah1_B-19" value="" style="endArrow=classic;html=1;fontSize=10;" parent="WIyWlLk6GJQsqaUBKTNV-1" edge="1">
          <mxGeometry width="50" height="50" relative="1" as="geometry">
            <mxPoint x="310" y="430" as="sourcePoint" />
            <mxPoint x="300" y="430" as="targetPoint" />
          </mxGeometry>
        </mxCell>
        <mxCell id="oCqJVqsjdXsVLJCah1_B-20" value="nutrition pages returned/games streamed" style="text;html=1;resizable=0;autosize=1;align=center;verticalAlign=middle;points=[];fillColor=none;strokeColor=none;rounded=0;fontSize=10;" parent="WIyWlLk6GJQsqaUBKTNV-1" vertex="1">
          <mxGeometry x="305" y="410" width="200" height="20" as="geometry" />
        </mxCell>
        <mxCell id="oCqJVqsjdXsVLJCah1_B-22" value="" style="endArrow=none;dashed=1;html=1;fontSize=10;" parent="WIyWlLk6GJQsqaUBKTNV-1" edge="1">
          <mxGeometry width="50" height="50" relative="1" as="geometry">
            <mxPoint x="314" y="510" as="sourcePoint" />
            <mxPoint x="510" y="510" as="targetPoint" />
          </mxGeometry>
        </mxCell>
        <mxCell id="oCqJVqsjdXsVLJCah1_B-23" value="" style="endArrow=classic;html=1;fontSize=10;" parent="WIyWlLk6GJQsqaUBKTNV-1" edge="1">
          <mxGeometry width="50" height="50" relative="1" as="geometry">
            <mxPoint x="310" y="510" as="sourcePoint" />
            <mxPoint x="300" y="510" as="targetPoint" />
          </mxGeometry>
        </mxCell>
        <mxCell id="oCqJVqsjdXsVLJCah1_B-24" value="return list matching parameters" style="text;html=1;resizable=0;autosize=1;align=center;verticalAlign=middle;points=[];fillColor=none;strokeColor=none;rounded=0;fontSize=10;" parent="WIyWlLk6GJQsqaUBKTNV-1" vertex="1">
          <mxGeometry x="325" y="490" width="150" height="20" as="geometry" />
        </mxCell>
        <mxCell id="oCqJVqsjdXsVLJCah1_B-30" value="" style="endArrow=classic;html=1;fontSize=10;" parent="WIyWlLk6GJQsqaUBKTNV-1" edge="1">
          <mxGeometry width="50" height="50" relative="1" as="geometry">
            <mxPoint x="540" y="550" as="sourcePoint" />
            <mxPoint x="620" y="550" as="targetPoint" />
          </mxGeometry>
        </mxCell>
        <mxCell id="oCqJVqsjdXsVLJCah1_B-31" value="" style="endArrow=none;dashed=1;html=1;fontSize=10;" parent="WIyWlLk6GJQsqaUBKTNV-1" edge="1">
          <mxGeometry width="50" height="50" relative="1" as="geometry">
            <mxPoint x="545" y="585" as="sourcePoint" />
            <mxPoint x="620" y="585" as="targetPoint" />
          </mxGeometry>
        </mxCell>
        <mxCell id="oCqJVqsjdXsVLJCah1_B-32" value="" style="endArrow=classic;html=1;fontSize=10;" parent="WIyWlLk6GJQsqaUBKTNV-1" edge="1">
          <mxGeometry width="50" height="50" relative="1" as="geometry">
            <mxPoint x="545" y="584" as="sourcePoint" />
            <mxPoint x="535" y="584" as="targetPoint" />
          </mxGeometry>
        </mxCell>
        <mxCell id="oCqJVqsjdXsVLJCah1_B-34" value="updated info&lt;br&gt;is sent" style="text;html=1;resizable=0;autosize=1;align=center;verticalAlign=middle;points=[];fillColor=none;strokeColor=none;rounded=0;fontSize=10;" parent="WIyWlLk6GJQsqaUBKTNV-1" vertex="1">
          <mxGeometry x="545" y="520" width="70" height="30" as="geometry" />
        </mxCell>
        <mxCell id="oCqJVqsjdXsVLJCah1_B-35" value="confirmation" style="text;html=1;resizable=0;autosize=1;align=center;verticalAlign=middle;points=[];fillColor=none;strokeColor=none;rounded=0;fontSize=10;" parent="WIyWlLk6GJQsqaUBKTNV-1" vertex="1">
          <mxGeometry x="545" y="565" width="70" height="20" as="geometry" />
        </mxCell>
        <mxCell id="oCqJVqsjdXsVLJCah1_B-36" value="" style="endArrow=none;dashed=1;html=1;fontSize=10;" parent="WIyWlLk6GJQsqaUBKTNV-1" edge="1">
          <mxGeometry width="50" height="50" relative="1" as="geometry">
            <mxPoint x="510" y="585" as="sourcePoint" />
            <mxPoint x="314" y="585" as="targetPoint" />
          </mxGeometry>
        </mxCell>
        <mxCell id="oCqJVqsjdXsVLJCah1_B-37" value="" style="endArrow=classic;html=1;fontSize=10;" parent="WIyWlLk6GJQsqaUBKTNV-1" edge="1">
          <mxGeometry width="50" height="50" relative="1" as="geometry">
            <mxPoint x="310" y="585" as="sourcePoint" />
            <mxPoint x="300" y="585" as="targetPoint" />
          </mxGeometry>
        </mxCell>
        <mxCell id="oCqJVqsjdXsVLJCah1_B-38" value="confirmation passed along" style="text;html=1;resizable=0;autosize=1;align=center;verticalAlign=middle;points=[];fillColor=none;strokeColor=none;rounded=0;fontSize=10;" parent="WIyWlLk6GJQsqaUBKTNV-1" vertex="1">
          <mxGeometry x="330" y="565" width="130" height="20" as="geometry" />
        </mxCell>
        <mxCell id="oCqJVqsjdXsVLJCah1_B-41" value="" style="endArrow=none;dashed=1;html=1;fontSize=10;" parent="WIyWlLk6GJQsqaUBKTNV-1" edge="1">
          <mxGeometry width="50" height="50" relative="1" as="geometry">
            <mxPoint x="305" y="720" as="sourcePoint" />
            <mxPoint x="505" y="720" as="targetPoint" />
          </mxGeometry>
        </mxCell>
        <mxCell id="oCqJVqsjdXsVLJCah1_B-42" value="" style="endArrow=classic;html=1;fontSize=10;" parent="WIyWlLk6GJQsqaUBKTNV-1" edge="1">
          <mxGeometry width="50" height="50" relative="1" as="geometry">
            <mxPoint x="305" y="720" as="sourcePoint" />
            <mxPoint x="295" y="720" as="targetPoint" />
          </mxGeometry>
        </mxCell>
        <mxCell id="oCqJVqsjdXsVLJCah1_B-43" value="post shared" style="text;html=1;resizable=0;autosize=1;align=center;verticalAlign=middle;points=[];fillColor=none;strokeColor=none;rounded=0;fontSize=10;" parent="WIyWlLk6GJQsqaUBKTNV-1" vertex="1">
          <mxGeometry x="360" y="700" width="70" height="20" as="geometry" />
        </mxCell>
        <mxCell id="oCqJVqsjdXsVLJCah1_B-44" value="Repeat&lt;br style=&quot;font-size: 12px;&quot;&gt;until&lt;br style=&quot;font-size: 12px;&quot;&gt;page is&lt;br style=&quot;font-size: 12px;&quot;&gt;closed" style="text;html=1;resizable=0;autosize=1;align=center;verticalAlign=middle;points=[];fillColor=none;strokeColor=none;rounded=0;fontSize=12;" parent="WIyWlLk6GJQsqaUBKTNV-1" vertex="1">
          <mxGeometry x="185" y="500" width="50" height="60" as="geometry" />
        </mxCell>
        <mxCell id="oCqJVqsjdXsVLJCah1_B-45" value="" style="rounded=0;whiteSpace=wrap;html=1;fontSize=12;" parent="WIyWlLk6GJQsqaUBKTNV-1" vertex="1">
          <mxGeometry x="760" y="200" width="10" height="540" as="geometry" />
        </mxCell>
        <mxCell id="oCqJVqsjdXsVLJCah1_B-46" value="Social media&lt;br&gt;page/application" style="text;html=1;resizable=0;autosize=1;align=center;verticalAlign=middle;points=[];fillColor=none;strokeColor=none;rounded=0;fontSize=13;" parent="WIyWlLk6GJQsqaUBKTNV-1" vertex="1">
          <mxGeometry x="710" y="160" width="110" height="40" as="geometry" />
        </mxCell>
        <mxCell id="oCqJVqsjdXsVLJCah1_B-47" value="" style="endArrow=classic;html=1;fontSize=12;" parent="WIyWlLk6GJQsqaUBKTNV-1" edge="1">
          <mxGeometry width="50" height="50" relative="1" as="geometry">
            <mxPoint x="540" y="690" as="sourcePoint" />
            <mxPoint x="750" y="690" as="targetPoint" />
          </mxGeometry>
        </mxCell>
        <mxCell id="oCqJVqsjdXsVLJCah1_B-48" value="child in-game progress/nutritional info posted" style="text;html=1;resizable=0;autosize=1;align=center;verticalAlign=middle;points=[];fillColor=none;strokeColor=none;rounded=0;fontSize=10;" parent="WIyWlLk6GJQsqaUBKTNV-1" vertex="1">
          <mxGeometry x="540" y="670" width="210" height="20" as="geometry" />
        </mxCell>
        <mxCell id="oCqJVqsjdXsVLJCah1_B-49" value="" style="endArrow=classic;html=1;fontSize=10;" parent="WIyWlLk6GJQsqaUBKTNV-1" edge="1">
          <mxGeometry width="50" height="50" relative="1" as="geometry">
            <mxPoint x="540" y="630" as="sourcePoint" />
            <mxPoint x="750" y="630" as="targetPoint" />
          </mxGeometry>
        </mxCell>
        <mxCell id="oCqJVqsjdXsVLJCah1_B-50" value="connect to platform, user sign in" style="text;html=1;resizable=0;autosize=1;align=center;verticalAlign=middle;points=[];fillColor=none;strokeColor=none;rounded=0;fontSize=10;" parent="WIyWlLk6GJQsqaUBKTNV-1" vertex="1">
          <mxGeometry x="565" y="610" width="160" height="20" as="geometry" />
        </mxCell>
        <mxCell id="oCqJVqsjdXsVLJCah1_B-52" value="" style="endArrow=none;dashed=1;html=1;fontSize=10;" parent="WIyWlLk6GJQsqaUBKTNV-1" edge="1">
          <mxGeometry width="50" height="50" relative="1" as="geometry">
            <mxPoint x="550" y="660" as="sourcePoint" />
            <mxPoint x="740" y="660" as="targetPoint" />
            <Array as="points">
              <mxPoint x="550" y="660" />
            </Array>
          </mxGeometry>
        </mxCell>
        <mxCell id="oCqJVqsjdXsVLJCah1_B-53" value="" style="endArrow=classic;html=1;fontSize=10;" parent="WIyWlLk6GJQsqaUBKTNV-1" edge="1">
          <mxGeometry width="50" height="50" relative="1" as="geometry">
            <mxPoint x="550" y="660" as="sourcePoint" />
            <mxPoint x="540" y="660" as="targetPoint" />
          </mxGeometry>
        </mxCell>
        <mxCell id="oCqJVqsjdXsVLJCah1_B-54" value="sign in confirmation" style="text;html=1;resizable=0;autosize=1;align=center;verticalAlign=middle;points=[];fillColor=none;strokeColor=none;rounded=0;fontSize=10;" parent="WIyWlLk6GJQsqaUBKTNV-1" vertex="1">
          <mxGeometry x="595" y="640" width="100" height="20" as="geometry" />
        </mxCell>
        <mxCell id="oCqJVqsjdXsVLJCah1_B-56" value="" style="endArrow=none;dashed=1;html=1;fontSize=10;" parent="WIyWlLk6GJQsqaUBKTNV-1" edge="1">
          <mxGeometry width="50" height="50" relative="1" as="geometry">
            <mxPoint x="550" y="720" as="sourcePoint" />
            <mxPoint x="750" y="720" as="targetPoint" />
          </mxGeometry>
        </mxCell>
        <mxCell id="oCqJVqsjdXsVLJCah1_B-57" value="" style="endArrow=classic;html=1;fontSize=10;" parent="WIyWlLk6GJQsqaUBKTNV-1" edge="1">
          <mxGeometry width="50" height="50" relative="1" as="geometry">
            <mxPoint x="550" y="719" as="sourcePoint" />
            <mxPoint x="540" y="719.6666259765625" as="targetPoint" />
          </mxGeometry>
        </mxCell>
        <mxCell id="oCqJVqsjdXsVLJCah1_B-58" value="post share confirmation" style="text;html=1;resizable=0;autosize=1;align=center;verticalAlign=middle;points=[];fillColor=none;strokeColor=none;rounded=0;fontSize=10;" parent="WIyWlLk6GJQsqaUBKTNV-1" vertex="1">
          <mxGeometry x="575" y="700" width="120" height="20" as="geometry" />
        </mxCell>
        <mxCell id="GqSg4tKWMr31YXBIvTud-1" value="&lt;font style=&quot;font-size: 24px&quot;&gt;&lt;u&gt;&lt;b&gt;Parent&lt;/b&gt;&lt;/u&gt;&lt;/font&gt;" style="text;html=1;align=center;verticalAlign=middle;resizable=0;points=[];autosize=1;" vertex="1" parent="WIyWlLk6GJQsqaUBKTNV-1">
          <mxGeometry x="65" y="80" width="90" height="20" as="geometry" />
        </mxCell>
      </root>
    </mxGraphModel>
  </diagram>
</mxfile>
